<?xml version="1.0" standalone="no"?>
<!DOCTYPE svg PUBLIC "-//W3C//DTD SVG 20010904//EN"
 "http://www.w3.org/TR/2001/REC-SVG-20010904/DTD/svg10.dtd">
<svg version="1.0" xmlns="http://www.w3.org/2000/svg"
 width="150.000000pt" height="150.000000pt" viewBox="0 0 150.000000 150.000000"
 preserveAspectRatio="xMidYMid meet">
<metadata>
Created by potrace 1.11, written by Peter Selinger 2001-2013
</metadata>
<g transform="translate(0.000000,150.000000) scale(0.100000,-0.100000)"
fill="#000000" stroke="none">
<path d="M623 1489 c-82 -14 -208 -64 -281 -113 -81 -53 -175 -150 -227 -230
-147 -229 -150 -546 -8 -780 78 -127 228 -257 361 -311 209 -85 475 -64 666
52 127 78 257 228 311 361 85 209 64 475 -52 666 -78 127 -228 257 -361 311
-117 47 -282 65 -409 44z m277 -379 c205 -33 368 -128 429 -252 77 -153 -2
-312 -203 -408 -105 -50 -187 -69 -317 -77 -286 -16 -544 90 -628 259 -122
242 157 483 564 487 50 0 119 -4 155 -9z"/>
<path d="M677 980 c-85 -22 -150 -73 -183 -145 -13 -27 -24 -63 -24 -79 0 -86
57 -168 148 -213 48 -24 69 -28 137 -28 126 1 216 53 261 150 27 56 29 90 12
146 -36 122 -208 205 -351 169z"/>
</g>
</svg>
